<svg xmlns="http://www.w3.org/2000/svg" xmlns:xlink="http://www.w3.org/1999/xlink" id="Layer_1" x="0" y="0" version="1.1" viewBox="0 0 1000 1000" xml:space="preserve" style="enable-background:new 0 0 1000 1000"><style type="text/css">.st0{fill:#124d99}.st1{fill:url(#SVGID_1_)}.st2{fill:url(#SVGID_2_)}.st3{fill:url(#SVGID_3_)}.st4{fill:url(#SVGID_4_)}</style><switch><g><g><g><g><path d="M228.3,590.2v68.1h-11.8v-68.1H228.3z" class="st0"/><path d="M248.8,638.5c0.8,5.9,5.9,10.2,14.3,10.2c4.4,0,10.1-1.7,12.9-4.5l7.6,7.5c-5.1,5.3-13.3,7.8-20.6,7.8 c-16.6,0-26.4-10.2-26.4-25.6c0-14.6,9.9-25.1,25.5-25.1c16.1,0,26.1,9.9,24.3,29.7H248.8z M274.9,628.7 c-0.8-6.2-5.6-9.4-12.5-9.4c-6.4,0-11.7,3.1-13.4,9.4H274.9z" class="st0"/><path d="M333.5,610.3h11.4v48h-11.2l-0.6-7c-2.7,5.6-10.2,8.4-15.6,8.5c-14.2,0.1-24.7-8.7-24.7-25.5 c0-16.6,11-25.2,25-25.1c6.4,0,12.6,3,15.3,7.8L333.5,610.3z M304.7,634.2c0,9.2,6.3,14.6,14.2,14.6c18.7,0,18.7-29.1,0-29.1 C311,619.7,304.7,625.1,304.7,634.2z" class="st0"/><path d="M366,610.3l0.9,5.6c3.7-5.9,8.7-6.8,13.5-6.8c5,0,9.7,1.9,12.4,4.6l-5.4,10.3c-2.4-2-4.7-3.1-8.6-3.1 c-6.2,0-12,3.3-12,12.2v25.3H355v-48H366z" class="st0"/><path d="M432.6,658.3v-25.1c0-7.3-4-12.9-11.6-12.9c-7.3,0-12.3,6.1-12.3,13.4v24.5H397v-48.1h10.6l0.8,6.5 c4.9-4.8,9.7-7.2,15.8-7.2c11.3,0,20.4,8.5,20.4,23.6v25.2H432.6z" class="st0"/><path d="M467.2,595.7v14.5h16.4v4h-16.4v29.3c0,6.5,1.4,11.1,8.9,11.1c2.3,0,5-0.8,7.4-1.9l1.7,3.9 c-3,1.5-6,2.4-9.1,2.4c-10.2,0-13.5-6-13.5-15.5v-29.3h-10.2v-4h10.2v-14L467.2,595.7z" class="st0"/><path d="M492.3,634.3c0-15.3,10.9-25,24.4-25s24.4,9.7,24.4,25c0,15.3-10.9,24.6-24.4,24.6 S492.3,649.6,492.3,634.3z M536.5,634.3c0-12.5-8.9-20.6-19.8-20.6c-10.9,0-19.8,8.1-19.8,20.6s8.9,20,19.8,20 C527.7,654.3,536.5,646.8,536.5,634.3z" class="st0"/><path d="M591.9,652.2c-5.6,5.5-11.4,7.6-18.5,7.6c-13.9,0-25.5-8.4-25.5-25.4s11.6-25.4,25.5-25.4 c6.8,0,12.1,1.9,17.3,7.1l-7.5,7.9c-2.8-2.5-6.3-3.8-9.6-3.8c-8,0-13.8,5.8-13.8,14.2c0,9.2,6.2,14,13.6,14 c3.8,0,7.6-1.1,10.5-4L591.9,652.2z" class="st0"/><path d="M609,590.2v68.1h-11.8v-68.1H609z" class="st0"/><path d="M667.1,634.3c0,13.8-9.4,25-25,25s-24.9-11.2-24.9-25c0-13.7,9.5-25,24.8-25 C657.3,609.3,667.1,620.6,667.1,634.3z M629.1,634.3c0,7.3,4.4,14.1,13.1,14.1s13.1-6.8,13.1-14.1c0-7.2-5.1-14.2-13.1-14.2 C633.5,620.1,629.1,627.1,629.1,634.3z" class="st0"/><path d="M687.5,610.3v25.1c0,7.3,4,12.9,11.6,12.9c7.3,0,12.3-6.1,12.3-13.4v-24.5h11.8v48.1h-10.6l-0.8-6.5 c-5,4.9-9.5,7.2-16.3,7.2c-11.5,0-19.9-8.7-19.9-23.6v-25.2H687.5z" class="st0"/><path d="M783.5,590.2v68.1h-11.1l-0.8-6.6c-3.7,5.7-9.6,7.7-15.5,7.7c-14.1,0-24.7-9.4-24.7-25.1 c0-16.6,10.4-25.1,24.4-25.1c5.1,0,13,2.7,15.8,7.7v-26.6H783.5z M743.3,634.2c0,8.4,6,14.1,13.6,14.1 c7.5,0,13.9-5.5,13.9-14.1c0-8.4-6.4-14-13.9-14C749.3,620.2,743.3,625.6,743.3,634.2z" class="st0"/></g><g><path d="M284.5,679.3v1.9h-6.2v-9.1h2.3v7.2H284.5z" class="st0"/><path d="M290.6,673.9v1.8h4.4v1.8h-4.4v1.8h5v1.8h-7.3v-9.1h7.1v1.8H290.6z" class="st0"/><path d="M301.7,679.5l-0.7,1.7h-2.4l3.9-9.1h2.4l3.8,9.1h-2.5l-0.7-1.7H301.7z M303.7,674.4l-1.3,3.4h2.6 L303.7,674.4z" class="st0"/><path d="M316.4,678.6L316.4,678.6h-1.8v2.6h-2.3v-9.1h4.1c2.4,0,3.8,1.1,3.8,3.2c0,1.4-0.6,2.4-1.7,2.9l1.9,3h-2.6 L316.4,678.6z M316.4,676.8c1,0,1.6-0.5,1.6-1.5c0-1-0.6-1.4-1.6-1.4h-1.8v2.9H316.4z" class="st0"/><path d="M330.7,681.2l-4.2-5.6v5.6h-2.2v-9.1h2l4.2,5.6v-5.6h2.2v9.1H330.7z" class="st0"/><path d="M347.1,673.9v7.3h-2.3v-7.3H342v-1.9h7.8v1.9H347.1z" class="st0"/><path d="M359.5,681.2v-3.5h-3.8v3.5h-2.3v-9.1h2.3v3.8h3.8v-3.8h2.3v9.1H359.5z" class="st0"/><path d="M368.6,673.9v1.8h4.4v1.8h-4.4v1.8h5v1.8h-7.3v-9.1h7.1v1.8H368.6z" class="st0"/><path d="M385.6,673.9v2.1h4.1v1.8h-4.1v3.4h-2.3v-9.1h6.8v1.8H385.6z" class="st0"/><path d="M402,677.4c0,2.4-1.6,3.9-4.2,3.9c-2.6,0-4.2-1.5-4.2-3.9v-5.3h2.3v5.3c0,1.2,0.8,2,1.9,2 c1.1,0,1.8-0.8,1.8-2v-5.3h2.3V677.4z" class="st0"/><path d="M412.6,681.2l-4.2-5.6v5.6h-2.2v-9.1h2l4.2,5.6v-5.6h2.2v9.1H412.6z" class="st0"/><path d="M423,672.1c2.9,0,4.8,1.9,4.8,4.6c0,2.7-2,4.6-4.9,4.6h-3.8v-9.1H423z M421.4,679.3h1.7 c1.4,0,2.4-1.1,2.4-2.7c0-1.6-1.1-2.7-2.5-2.7h-1.6V679.3z" class="st0"/><path d="M433.5,679.5l-0.7,1.7h-2.4l3.9-9.1h2.4l3.8,9.1h-2.5l-0.7-1.7H433.5z M435.5,674.4l-1.3,3.4h2.6 L435.5,674.4z" class="st0"/><path d="M452.1,681.2l0-5.9l-2.2,5h-1.5l-2.2-5v5.9h-2.1v-9.1h2.5l2.5,5.4l2.5-5.4h2.5v9.1H452.1z" class="st0"/><path d="M460.9,673.9v1.8h4.4v1.8h-4.4v1.8h5v1.8h-7.3v-9.1h7.1v1.8H460.9z" class="st0"/><path d="M476.3,681.2l-4.2-5.6v5.6H470v-9.1h2l4.2,5.6v-5.6h2.2v9.1H476.3z" class="st0"/><path d="M487,673.9v7.3h-2.3v-7.3H482v-1.9h7.8v1.9H487z" class="st0"/><path d="M494.5,679.5l-0.7,1.7h-2.4l3.9-9.1h2.4l3.8,9.1h-2.5l-0.7-1.7H494.5z M496.5,674.4l-1.3,3.4h2.6 L496.5,674.4z" class="st0"/><path d="M511.2,679.3v1.9h-6.2v-9.1h2.3v7.2H511.2z" class="st0"/><path d="M522.1,673l-0.9,1.8c-1-0.6-2.2-1-2.9-1c-0.6,0-1,0.2-1,0.7c0,1.6,4.8,0.7,4.8,4c0,1.8-1.6,2.8-3.6,2.8 c-1.5,0-3.1-0.6-4.2-1.5l0.9-1.8c0.9,0.8,2.3,1.4,3.3,1.4c0.7,0,1.2-0.3,1.2-0.8c0-1.6-4.8-0.7-4.8-3.9c0-1.7,1.4-2.7,3.6-2.7 C519.8,672,521.1,672.4,522.1,673z" class="st0"/><path d="M540.9,676.6c0,2.7-2.1,4.7-4.9,4.7c-2.8,0-4.9-2-4.9-4.7c0-2.7,2.1-4.6,4.9-4.6 C538.7,672,540.9,674,540.9,676.6z M533.4,676.6c0,1.5,1.2,2.7,2.6,2.7c1.4,0,2.5-1.2,2.5-2.7c0-1.5-1.1-2.7-2.5-2.7 S533.4,675.1,533.4,676.6z" class="st0"/><path d="M547,673.9v2.1h4.1v1.8H547v3.4h-2.3v-9.1h6.8v1.8H547z" class="st0"/><path d="M568.8,673.5l-1.3,1.6c-0.6-0.7-1.5-1.2-2.3-1.2c-1.4,0-2.5,1.1-2.5,2.6c0,1.5,1.1,2.7,2.5,2.7 c0.8,0,1.7-0.4,2.3-1.1l1.4,1.4c-1,1-2.4,1.7-3.8,1.7c-2.8,0-4.8-2-4.8-4.7c0-2.6,2.1-4.6,4.9-4.6 C566.4,672,567.8,672.6,568.8,673.5z" class="st0"/><path d="M578.6,679.3v1.9h-6.2v-9.1h2.3v7.2H578.6z" class="st0"/><path d="M591.6,676.6c0,2.7-2.1,4.7-4.9,4.7c-2.8,0-4.9-2-4.9-4.7c0-2.7,2.1-4.6,4.9-4.6 C589.5,672,591.6,674,591.6,676.6z M584.1,676.6c0,1.5,1.2,2.7,2.6,2.7c1.4,0,2.5-1.2,2.5-2.7c0-1.5-1.1-2.7-2.5-2.7 C585.3,673.9,584.1,675.1,584.1,676.6z" class="st0"/><path d="M603.7,677.4c0,2.4-1.6,3.9-4.2,3.9c-2.6,0-4.2-1.5-4.2-3.9v-5.3h2.3v5.3c0,1.2,0.8,2,1.9,2 c1.1,0,1.8-0.8,1.8-2v-5.3h2.3V677.4z" class="st0"/><path d="M611.9,672.1c2.9,0,4.8,1.9,4.8,4.6c0,2.7-2,4.6-4.9,4.6h-3.8v-9.1H611.9z M610.2,679.3h1.7 c1.4,0,2.4-1.1,2.4-2.7c0-1.6-1.1-2.7-2.5-2.7h-1.6V679.3z" class="st0"/><path d="M634.1,673.5l-1.3,1.6c-0.6-0.7-1.5-1.2-2.3-1.2c-1.4,0-2.5,1.1-2.5,2.6c0,1.5,1.1,2.7,2.5,2.7 c0.8,0,1.7-0.4,2.3-1.1l1.4,1.4c-1,1-2.4,1.7-3.8,1.7c-2.7,0-4.8-2-4.8-4.7c0-2.6,2.1-4.6,4.9-4.6 C631.8,672,633.2,672.6,634.1,673.5z" class="st0"/><path d="M646.9,676.6c0,2.7-2.1,4.7-4.9,4.7c-2.8,0-4.9-2-4.9-4.7c0-2.7,2.1-4.6,4.9-4.6 C644.8,672,646.9,674,646.9,676.6z M639.4,676.6c0,1.5,1.2,2.7,2.6,2.7c1.4,0,2.5-1.2,2.5-2.7c0-1.5-1.1-2.7-2.5-2.7 S639.4,675.1,639.4,676.6z" class="st0"/><path d="M658.7,681.2l0-5.9l-2.2,5H655l-2.2-5v5.9h-2.1v-9.1h2.5l2.5,5.4l2.5-5.4h2.5v9.1H658.7z" class="st0"/><path d="M669.2,672.1c2.3,0,3.7,1.1,3.7,3.2c0,2.1-1.3,3.4-3.7,3.4h-1.7v2.6h-2.3v-9.1H669.2z M667.5,676.8h1.5 c1,0,1.6-0.5,1.6-1.5c0-1-0.6-1.4-1.6-1.4h-1.5V676.8z" class="st0"/><path d="M684.9,677.4c0,2.4-1.6,3.9-4.2,3.9c-2.6,0-4.2-1.5-4.2-3.9v-5.3h2.3v5.3c0,1.2,0.8,2,1.9,2 c1.1,0,1.8-0.8,1.8-2v-5.3h2.3V677.4z" class="st0"/><path d="M693.4,673.9v7.3h-2.3v-7.3h-2.7v-1.9h7.8v1.9H693.4z" class="st0"/><path d="M699.7,681.2v-9.1h2.3v9.1H699.7z" class="st0"/><path d="M712.9,681.2l-4.2-5.6v5.6h-2.2v-9.1h2l4.2,5.6v-5.6h2.2v9.1H712.9z" class="st0"/><path d="M727.4,676.6v3.6c-1,0.7-2.5,1.2-3.8,1.2c-2.8,0-4.9-2-4.9-4.7c0-2.6,2.2-4.6,5-4.6c1.4,0,2.8,0.5,3.7,1.4 l-1.3,1.6c-0.7-0.6-1.6-1-2.4-1c-1.5,0-2.6,1.2-2.6,2.7c0,1.6,1.2,2.7,2.7,2.7c0.5,0,1.1-0.2,1.6-0.4v-2.4H727.4z" class="st0"/></g></g><g><linearGradient id="SVGID_1_" x1="562.519" x2="436.519" y1="351.5" y2="540.5" gradientUnits="userSpaceOnUse"><stop offset="0" style="stop-color:#83dcff"/><stop offset="1" style="stop-color:#0076f7"/></linearGradient><path d="M600.5,376.5c-4.9,0-9.7,0.5-14.5,1.6c-12.8-35.2-46.8-59.4-84.8-59.4c-37.9,0-71.9,24.1-84.7,59.4 c-6.1-1.3-12.4-1.8-18.7-1.4c-35.4,2.2-63.1,32.2-62.6,67.6c0.5,36.5,30.3,66.1,66.9,66.1h5.8v0h12v0h14.9 c15,0,27.2-12.2,27.2-27.2v-12.1c4.9-3.2,8-9.1,7.1-15.5c-1-7.1-6.8-12.8-13.9-13.6c-9.6-1.1-17.7,6.4-17.7,15.8 c0,7.6,5.4,14,12.6,15.5v9.9c0,8.4-6.8,15.2-15.2,15.2h-14.9v0h-12v0H402c-0.5,0-1.1,0-1.6,0h-3.6v-0.2 c-27.4-2.6-49-25.4-49.7-53.2c-0.8-29.3,22-54.4,51.3-56.3c6.9-0.4,13.7,0.4,20.2,2.4l0,0c3.2,1,6.6-0.8,7.6-4l0,0 c9.6-33.2,40.5-56.3,75-56.3c34.6,0,65.4,23.2,75.1,56.3l0,0c0.9,3.2,4.4,5.1,7.6,4l0,0c6.5-2.1,13.4-2.9,20.2-2.4 c28.9,1.9,51.6,26.4,51.3,55.3c-0.2,27.1-20.3,49.6-46.4,53.7v0.6h-7.1c-0.5,0-1,0-1.5,0h-5.8v0h-12v0h-15.9 c-8.4,0-15.2-6.8-15.2-15.2v-10c7.1-1.8,12.4-8.3,12.1-16.1c-0.3-8.1-7-14.8-15.1-15.2c-9.1-0.4-16.7,6.9-16.7,15.9 c0,5.8,3.1,10.8,7.7,13.6v11.8c0,15,12.2,27.2,27.2,27.2h15.9v0h12v0h4.8c36.7,0,67.4-29.2,67.9-65.9 C668,407.1,637.7,376.5,600.5,376.5z M449.4,457.7c0-2.2,1.7-3.9,3.9-3.9s3.9,1.7,3.9,3.9s-1.7,3.9-3.9,3.9 S449.4,459.9,449.4,457.7z M547.8,461.6c-2.2,0-3.9-1.7-3.9-3.9s1.7-3.9,3.9-3.9c2.2,0,3.9,1.7,3.9,3.9S549.9,461.6,547.8,461.6 z" class="st1"/><linearGradient id="SVGID_2_" x1="606.936" x2="480.936" y1="381.112" y2="570.112" gradientUnits="userSpaceOnUse"><stop offset="0" style="stop-color:#83dcff"/><stop offset="1" style="stop-color:#0076f7"/></linearGradient><path d="M588.7,490.3c3.3,0,6-2.7,6-6l0-70c0-3.2-1.1-6.4-3.3-8.8c-3.7-4-9.3-5.2-14.1-3.3L520,426.7 c-2.3,0.9-3.8,3.1-3.8,5.6v0c0,4.2,4.3,7.1,8.2,5.6l57.3-24.4c0.1,0,0.3-0.1,0.6,0.1c0.3,0.2,0.3,0.5,0.3,0.6v70.2 C582.7,487.7,585.4,490.3,588.7,490.3z" class="st2"/><linearGradient id="SVGID_3_" x1="515.564" x2="389.564" y1="320.197" y2="509.197" gradientUnits="userSpaceOnUse"><stop offset="0" style="stop-color:#83dcff"/><stop offset="1" style="stop-color:#0076f7"/></linearGradient><path d="M487.3,432.3c0-2.5-1.5-4.7-3.8-5.6l-58.2-24.4c-4.8-1.9-10.4-0.7-14.1,3.3c-2.2,2.4-3.3,5.6-3.3,8.8v71 c0,3.3,2.7,6,6,6s6-2.7,6-6v-71.2c0-0.1,0-0.4,0.3-0.6c0.1-0.1,0.3-0.1,0.4-0.1c0.1,0,0.2,0,0.3,0.1l58.2,24.4 C483,439.4,487.3,436.5,487.3,432.3z" class="st3"/><linearGradient id="SVGID_4_" x1="591.78" x2="465.78" y1="371.008" y2="560.008" gradientUnits="userSpaceOnUse"><stop offset="0" style="stop-color:#83dcff"/><stop offset="1" style="stop-color:#0076f7"/></linearGradient><path d="M588.7,517.4c-3.3,0-6,2.7-6,6v9.9c0,0.3-0.2,0.6-0.5,0.7l-74.9,23.1V455.3h0v-12.4V430v-15.5h0v-34.9 c5.9-2.4,10.1-8.3,9.9-15.2c-0.2-8.2-6.9-15-15.1-15.4c-9.1-0.4-16.7,6.9-16.7,15.9c0,6.6,4.1,12.3,9.9,14.7v32.7h0V430v12.9 v10.2h0v104.1L420.4,534c-0.3-0.1-0.5-0.4-0.5-0.7v-8.9c0-3.3-2.7-6-6-6s-6,2.7-6,6v8.9c0,5.6,3.6,10.5,8.9,12.1l84.4,26.1 l84.4-26.1c5.4-1.7,9-6.5,9-12.1v-9.9C594.7,520.1,592,517.4,588.7,517.4z M501.3,368.8c-2.2,0-3.9-1.7-3.9-3.9s1.7-3.9,3.9-3.9 c2.2,0,3.9,1.7,3.9,3.9S503.4,368.8,501.3,368.8z" class="st4"/></g></g></g></switch></svg>